<svg width="853" height="189" viewBox="0 0 853 189" fill="none" xmlns="http://www.w3.org/2000/svg">
<path d="M16.5195 18.1582L20.5625 18.3828C41.8255 18.3828 55.1523 19.6556 60.543 22.2012C72.2227 23.8483 82.8542 25.9447 92.4375 28.4902C94.5339 29.6882 98.7266 31.0358 105.016 32.5332C106.962 33.2819 108.684 35.0788 110.182 37.9238C115.572 42.416 118.268 48.7051 118.268 56.791L114 76.1074C112.353 80.3001 108.01 87.7122 100.973 98.3438C100.973 101.488 89.9668 106.579 67.9551 113.617C67.0566 114.815 63.1634 115.714 56.2754 116.312C53.8796 117.061 46.168 118.109 33.1406 119.457V145.736L32.6914 167.523C40.7773 167.523 48.6387 169.171 56.2754 172.465V173.139H56.5L56.2754 173.363V175.834C56.2754 176.283 56.5 176.882 56.9492 177.631L55.8262 179.877V182.123C55.8262 183.77 54.4785 184.594 51.7832 184.594H42.3496V185.043C42.3496 185.792 44.0716 186.316 47.5156 186.615V187.738L44.8203 188.188C38.2318 186.391 27.9746 185.492 14.0488 185.492C12.8509 183.845 12.1022 183.021 11.8027 183.021L5.73828 184.594C5.73828 185.193 6.56185 185.642 8.20898 185.941V186.166C8.20898 186.615 7.38542 186.99 5.73828 187.289C4.24089 187.289 3.49219 182.497 3.49219 172.914L2.59375 168.871C2.59375 167.374 3.34245 166.625 4.83984 166.625L12.7012 167.523H14.0488C15.696 167.523 16.5195 156.667 16.5195 134.955L16.9688 124.174C16.0703 124.174 15.6211 122.751 15.6211 119.906L15.1719 113.168V103.061C15.1719 100.814 15.0221 98.4935 14.7227 96.0977L15.1719 94.5254L14.2734 93.627V92.7285L15.6211 91.3809V89.584L14.7227 88.4609C15.4714 78.2786 15.8457 70.5671 15.8457 65.3262V64.877C15.097 63.8288 14.7227 61.957 14.7227 59.2617V56.3418L16.0703 43.0898V42.8652C12.776 42.5658 8.73307 42.416 3.94141 42.416C2.14453 42.416 0.946615 39.9453 0.347656 35.0039V34.7793C0.347656 33.8809 0.946615 32.084 2.14453 29.3887L1.69531 26.2441C1.69531 24.7467 2.89323 23.9232 5.28906 23.7734H5.96289V23.5488L4.83984 21.3027V20.8535C4.98958 19.5059 8.88281 18.6074 16.5195 18.1582ZM24.1562 21.3027L17.1934 21.752V22.2012C17.1934 22.6504 21.9102 23.0996 31.3438 23.5488L37.8574 23.0996C38.6061 22.8001 38.9805 22.5755 38.9805 22.4258V21.752L34.2637 21.3027H24.1562ZM42.3496 22.4258L43.0234 22.875H47.0664L47.9648 22.4258C47.9648 21.8268 46.8418 21.4525 44.5957 21.3027C43.0983 21.4525 42.3496 21.8268 42.3496 22.4258ZM75.8164 26.918L75.1426 27.3672H76.2656L75.8164 26.918ZM75.1426 31.4102L74.918 31.6348V31.8594C75.8164 32.3086 76.7897 32.5332 77.8379 32.5332H78.0625V32.3086C78.0625 31.7096 77.0892 31.4102 75.1426 31.4102ZM15.8457 32.9824V33.4316L17.1934 33.6562H17.8672C19.6641 33.3568 20.5625 32.9824 20.5625 32.5332L20.1133 31.8594H18.3164C16.9688 31.8594 16.1452 32.2337 15.8457 32.9824ZM26.8516 32.3086H26.1777V32.5332H26.8516V32.3086ZM31.3438 33.8809H30.2207V34.3301C30.2207 35.8275 31.3438 36.5762 33.5898 36.5762L39.6543 35.9023V35.6777C39.6543 34.6296 36.8841 34.0306 31.3438 33.8809ZM85.25 34.5547L85.0254 34.7793V35.0039C87.4212 36.9505 89.1432 37.9238 90.1914 37.9238V37.0254C90.1914 35.9772 88.5443 35.1536 85.25 34.5547ZM21.9102 35.0039L21.2363 35.6777V35.9023C22.1348 37.25 23.4824 37.9238 25.2793 37.9238H27.0762L28.1992 36.5762V36.127C28.1992 35.6777 26.9264 35.3034 24.3809 35.0039H21.9102ZM76.7148 36.5762H76.2656V37.25C76.2656 37.9987 76.7897 38.373 77.8379 38.373H78.0625V37.0254L76.7148 36.5762ZM17.8672 37.4746L17.1934 38.373C17.1934 38.5228 17.8672 38.7474 19.2148 39.0469C20.263 38.8971 20.7871 38.6725 20.7871 38.373L20.3379 37.4746H17.8672ZM30.8945 40.8438V42.416V43.0898V43.9883L30.4453 55.2188C30.4453 63.4544 31.7181 75.6582 34.2637 91.8301L34.9375 102.836C39.4297 102.836 47.3659 101.488 58.7461 98.793C63.388 98.793 69.4525 96.1725 76.9395 90.9316C82.3301 88.2363 86.972 84.9421 90.8652 81.0488C95.0579 74.9095 97.1543 69.2194 97.1543 63.9785C97.6035 63.9785 97.8281 62.8555 97.8281 60.6094V59.0371C97.8281 57.2402 92.8118 53.347 82.7793 47.3574C68.7038 43.015 59.4948 40.0202 55.1523 38.373L50.4355 37.9238C38.9056 37.9238 32.3919 38.8971 30.8945 40.8438ZM26.1777 40.6191H25.7285V42.416H26.1777L26.4023 41.7422V41.293L26.1777 40.6191ZM90.8652 43.5391H90.6406V43.9883C91.8385 45.6354 93.2611 46.459 94.9082 46.459V45.1113C93.2611 44.0632 91.9134 43.5391 90.8652 43.5391ZM102.77 43.5391L102.096 43.9883V44.4375C102.545 45.1862 103.069 45.5605 103.668 45.5605L104.117 45.1113V44.8867L102.994 43.5391H102.77ZM94.9082 50.7266H93.5605V51.4004C93.7103 51.9993 94.459 52.2988 95.8066 52.2988H96.9297L97.1543 52.0742H97.6035C97.6035 51.1758 96.7051 50.7266 94.9082 50.7266ZM101.422 55.2188V56.1172L102.77 57.0156L103.219 56.5664C102.77 55.668 102.171 55.2188 101.422 55.2188ZM115.123 56.5664L114.674 57.0156C114.824 58.0638 115.198 58.5879 115.797 58.5879H116.246L116.695 57.0156L115.797 56.5664H115.123ZM109.732 62.6309L109.059 63.0801V63.5293L109.732 64.2031H110.182V63.0801L109.732 62.6309ZM94.2344 85.3164L94.459 85.7656C96.7051 83.9688 97.8281 82.3965 97.8281 81.0488H96.9297C95.1328 82.8457 94.2344 84.2682 94.2344 85.3164ZM26.1777 81.2734L25.7285 81.9473V82.6211H26.1777L26.8516 81.9473V81.2734H26.1777ZM77.3887 95.1992L77.8379 95.6484C78.4368 95.4987 78.9609 94.8997 79.4102 93.8516V93.1777H78.7363C77.8379 93.627 77.3887 94.3008 77.3887 95.1992ZM96.7051 94.9746L96.2559 95.6484V95.873L96.7051 96.5469H96.9297L97.8281 95.6484L97.1543 94.9746H96.7051ZM62.5645 102.387V103.061H63.2383C67.5807 102.312 69.752 101.638 69.752 101.039V100.59H68.1797C64.8854 100.74 63.0137 101.339 62.5645 102.387ZM84.8008 103.734V103.959H85.9238C87.8704 103.959 90.2663 103.135 93.1113 101.488V100.59H91.9883C87.1966 101.938 84.8008 102.986 84.8008 103.734ZM76.9395 105.082L75.8164 106.205H76.2656C77.3138 106.205 77.9128 105.906 78.0625 105.307V105.082H76.9395ZM66.6074 108.002L66.1582 108.676L67.9551 109.35H68.4043L68.8535 108.676L68.4043 108.002H66.6074ZM48.6387 111.371V111.82H49.7617L54.7031 110.248C59.944 110.098 62.7142 109.649 63.0137 108.9V108.676H60.7676C54.9277 108.676 50.8848 109.574 48.6387 111.371ZM36.5098 110.248L35.8359 110.922C35.8359 111.521 36.8092 111.82 38.7559 111.82C40.2533 111.671 41.002 111.371 41.002 110.922L40.3281 110.248H36.5098ZM24.1562 148.881C24.1562 152.175 24.3809 153.822 24.8301 153.822H25.2793V151.801V144.164L24.8301 143.715C24.3809 143.715 24.1562 145.437 24.1562 148.881ZM25.2793 157.641L24.8301 157.191C24.3809 158.09 24.1562 158.988 24.1562 159.887V160.561H24.8301L25.2793 160.111V157.641ZM10.9043 171.791L10.4551 172.24C10.6048 172.839 11.1289 173.139 12.0273 173.139C13.0755 172.989 13.5996 172.689 13.5996 172.24V171.791H10.9043ZM34.7129 177.182H32.0176V177.631L35.3867 178.08H38.3066V177.631L34.7129 177.182ZM37.4082 179.428H35.6113V180.102H36.5098L37.4082 179.877V179.428ZM45.4941 179.877L43.9219 180.102V180.551L44.3711 181H49.0879V180.551L45.4941 179.877ZM41.2266 183.021H40.3281V183.695H41.2266V183.021ZM166.675 74.7598L172.964 76.5566H174.986C183.521 80.7493 191.457 85.7656 198.795 91.6055C206.431 98.194 210.25 103.135 210.25 106.43H209.8C208.602 104.333 207.405 103.285 206.207 103.285H205.982C205.533 103.285 205.308 103.585 205.308 104.184C205.907 105.831 207.255 108.676 209.351 112.719H209.8C210.1 112.719 210.474 111.97 210.923 110.473H211.148C211.597 110.622 212.121 112.794 212.72 116.986L214.742 121.479L214.293 124.398L214.966 132.484C213.918 136.228 212.945 141.169 212.046 147.309C211.448 150.154 204.485 160.785 191.158 179.203C185.168 184.893 179.328 187.738 173.638 187.738C168.397 188.337 162.483 188.637 155.894 188.637H151.627C149.081 188.637 142.418 186.465 131.636 182.123C118.01 169.994 111.197 160.71 111.197 154.271C109.25 150.229 107.603 146.485 106.255 143.041C106.255 141.094 108.277 134.656 112.32 123.725C112.32 116.837 113.967 112.045 117.261 109.35C124.299 94.2259 133.209 84.418 143.99 79.9258C153.423 76.4818 160.985 74.7598 166.675 74.7598ZM126.246 145.287V146.635C128.342 150.678 130.663 155.02 133.209 159.662C133.209 161.16 136.054 163.256 141.744 165.951C144.439 169.096 149.455 171.566 156.793 173.363L160.836 173.812C167.424 172.465 172.365 171.042 175.66 169.545L183.746 162.807C192.131 153.822 196.174 146.26 195.875 140.121V138.1C194.976 135.704 194.527 131.811 194.527 126.42C194.527 122.227 194.826 118.933 195.425 116.537C195.425 115.489 192.505 112.868 186.666 108.676C182.473 102.686 178.13 99.0176 173.638 97.6699H170.943C153.423 98.4186 144.664 99.8411 144.664 101.938C140.77 105.831 138.075 109.649 136.578 113.393C131.786 118.484 129.39 121.853 129.39 123.5C128.043 129.639 126.994 136.902 126.246 145.287ZM133.209 90.9316L132.535 92.0547V92.9531C133.433 92.9531 138 89.8086 146.236 83.5195L148.033 82.8457L149.38 83.0703C159.413 82.0221 164.429 81.0488 164.429 80.1504V79.9258L160.836 79.252C150.653 79.252 141.444 83.1452 133.209 90.9316ZM150.728 95.6484V95.873L151.177 96.5469H154.322L170.269 92.9531V92.5039L166.002 91.6055C155.819 92.8034 150.728 94.151 150.728 95.6484ZM115.464 151.576L114.566 152.25V153.822C114.865 158.913 116.288 161.758 118.834 162.357L119.058 162.133V161.908C118.01 155.02 116.812 151.576 115.464 151.576ZM150.279 88.0117V89.1348C161.959 87.7871 167.798 86.8887 167.798 86.4395L166.002 85.7656H165.777C158.589 85.7656 153.423 86.5143 150.279 88.0117ZM169.371 79.4766C170.119 81.5729 171.767 82.6211 174.312 82.6211L176.558 82.8457L177.007 82.6211V81.498C177.007 79.8509 175.435 78.8776 172.291 78.5781C170.344 78.7279 169.371 79.0273 169.371 79.4766ZM128.492 174.262H126.92V175.16C128.866 177.107 132.385 178.08 137.476 178.08H139.947C139.198 177.032 135.38 175.759 128.492 174.262ZM165.552 182.572V183.021C165.552 183.471 166.675 183.845 168.921 184.145C171.467 184.145 172.74 183.77 172.74 183.021V182.572C172.59 181.973 172.066 181.374 171.168 180.775H169.146C167.499 180.775 166.301 181.374 165.552 182.572ZM208.228 139.896C208.378 144.389 208.752 146.785 209.351 147.084H209.8C209.8 145.437 210.474 143.64 211.822 141.693V141.02L209.351 137.65H208.902C208.602 137.65 208.378 138.399 208.228 139.896ZM193.404 101.264H192.505C193.404 103.21 195.575 104.857 199.019 106.205H199.918L200.591 105.531V105.307C198.046 102.611 195.65 101.264 193.404 101.264ZM188.463 94.3008V94.75C188.912 96.5469 191.008 98.4186 194.752 100.365H195.425L195.875 99.6914V99.4668C195.126 98.4186 192.655 96.6966 188.463 94.3008ZM173.638 86.8887L173.189 87.1133C176.034 89.3594 178.28 90.4824 179.927 90.4824L180.152 90.0332V89.8086C177.756 87.862 175.585 86.8887 173.638 86.8887ZM143.765 177.182V177.855C143.765 178.754 145.862 179.203 150.054 179.203L150.279 178.979V178.529C148.332 177.631 146.161 177.182 143.765 177.182ZM185.093 84.418L184.42 85.0918C186.067 87.1882 187.714 88.2363 189.361 88.2363C189.361 86.5892 188.088 85.3164 185.543 84.418H185.093ZM130.289 107.553V109.125H130.963C132.909 107.328 133.882 105.906 133.882 104.857V104.633H132.759C131.861 105.232 131.037 106.205 130.289 107.553ZM181.05 97.2207C181.949 98.7181 182.997 99.4668 184.195 99.4668L184.42 99.0176V98.5684C184.42 97.2207 183.821 96.5469 182.623 96.5469C181.574 96.6966 181.05 96.9212 181.05 97.2207ZM202.838 156.293V156.518C204.035 156.518 205.084 155.32 205.982 152.924V152.475H205.308C204.41 152.475 203.586 153.747 202.838 156.293ZM135.005 95.873C136.353 95.873 137.626 94.9746 138.824 93.1777V92.5039C136.278 93.2526 135.005 94.3757 135.005 95.873ZM206.431 152.25H207.554L208.453 152.924C208.602 150.528 208.228 149.48 207.33 149.779H206.88L206.656 148.207L206.431 152.25ZM177.681 184.145H177.906C180.601 183.246 181.949 182.497 181.949 181.898L181.5 181.449C179.403 182.198 178.13 183.096 177.681 184.145ZM123.775 166.4L122.877 166.85V167.299L124.673 169.096H125.572C125.572 168.048 124.973 167.149 123.775 166.4ZM139.048 180.326V180.551H141.968L142.418 180.102L141.968 179.428H141.519C140.022 179.428 139.198 179.727 139.048 180.326ZM211.822 123.949L211.148 124.623V125.521L211.822 126.42L212.72 125.521V124.623L212.046 123.949H211.822ZM116.812 116.762C117.561 116.762 118.235 116.238 118.834 115.189V114.74C117.486 114.74 116.812 115.414 116.812 116.762ZM109.849 141.02L109.4 141.693C109.55 143.041 109.774 143.715 110.074 143.715L110.523 143.49V142.367L110.074 141.02H109.849ZM169.82 89.1348V89.3594L172.066 87.5625L171.617 87.3379C170.119 88.2363 169.52 88.8353 169.82 89.1348ZM121.304 109.125H121.529C122.128 108.975 122.427 108.376 122.427 107.328H121.978C121.529 107.628 121.304 108.227 121.304 109.125ZM122.652 136.078L121.754 136.977V137.426H122.427L122.877 136.752V136.078H122.652ZM135.904 102.162H135.005V103.061H135.455L135.904 102.611V102.162ZM300.435 76.332C306.275 76.332 311.216 80.4499 315.259 88.6855C316.008 88.6855 317.056 89.6589 318.404 91.6055L321.323 108.227C320.275 110.023 316.307 110.922 309.419 110.922H307.173C301.633 110.023 298.863 108.152 298.863 105.307C298.863 103.21 297.14 100.29 293.696 96.5469C293.247 95.7982 290.028 95.4238 284.038 95.4238C278.348 95.4238 271.46 96.9212 263.374 99.916C257.684 105.906 253.941 110.548 252.144 113.842C253.192 139.447 253.566 155.469 253.267 161.908C253.267 163.256 254.165 163.93 255.962 163.93H261.353C263.749 164.079 264.946 164.529 264.946 165.277V165.502L265.845 168.422L265.396 181L264.048 182.797L253.491 183.92H252.593L248.101 185.268C230.881 184.669 222.271 183.995 222.271 183.246C219.276 183.246 217.779 181.898 217.779 179.203C217.479 176.508 217.329 173.738 217.329 170.893C217.329 168.048 220.249 166.176 226.089 165.277C226.089 164.079 228.111 163.48 232.154 163.48L232.827 163.256V162.807L231.48 101.264C231.48 97.5202 230.506 95.6484 228.56 95.6484H227.212C225.415 95.6484 222.42 96.472 218.228 98.1191L217.779 97.6699V97.2207C217.779 96.9212 218.377 96.5469 219.575 96.0977V95.6484C218.078 95.6484 217.329 91.4557 217.329 83.0703C217.03 83.0703 216.805 81.7227 216.655 79.0273C222.645 74.3854 228.934 72.0645 235.523 72.0645H241.138C243.384 72.0645 247.202 72.8132 252.593 74.3105V74.9844C251.245 77.0807 250.571 78.5781 250.571 79.4766V81.0488C262.7 75.6582 279.321 74.0859 300.435 76.332ZM241.587 110.248V111.371C242.336 112.868 242.71 114.441 242.71 116.088C242.56 116.687 242.336 119.757 242.036 125.297L242.486 134.281H242.71C243.159 134.281 243.758 127.318 244.507 113.393C244.807 113.393 244.956 111.895 244.956 108.9C244.807 107.553 244.432 106.879 243.833 106.879H243.384C242.186 107.628 241.587 108.751 241.587 110.248ZM228.111 178.08L225.191 178.305V178.754C225.191 179.503 227.362 179.877 231.704 179.877H238.443L240.015 179.652C240.015 178.904 236.047 178.38 228.111 178.08ZM266.968 85.9902V86.4395C268.316 86.4395 270.113 84.2682 272.359 79.9258V78.8027H272.134C268.241 80.0007 266.519 82.3965 266.968 85.9902ZM295.943 93.1777H297.066C297.814 93.028 299.237 91.2311 301.333 87.7871V87.5625C301.333 87.263 301.034 87.1133 300.435 87.1133C297.889 88.3112 296.616 89.8835 296.616 91.8301C296.467 91.8301 296.242 92.2793 295.943 93.1777ZM244.282 98.3438H243.384L242.261 103.061C242.261 103.809 242.71 104.558 243.609 105.307H243.833C244.282 105.307 244.657 104.258 244.956 102.162L244.282 98.3438ZM275.503 81.0488L276.626 85.541H278.423V80.8242L277.749 80.1504H277.075C276.027 80.3001 275.503 80.5996 275.503 81.0488ZM226.538 174.486L226.089 174.936L226.314 175.385H238.667V174.711L231.03 174.486H226.538ZM222.495 80.8242C223.693 82.0221 224.966 82.6211 226.314 82.6211L226.538 82.1719V80.5996L225.64 79.4766C223.543 79.776 222.495 80.2253 222.495 80.8242ZM245.181 176.059L245.855 176.732H249.224L250.122 175.834C250.122 175.535 249.748 175.235 248.999 174.936C246.454 175.235 245.181 175.609 245.181 176.059ZM309.868 86.8887H309.195V87.3379C310.392 88.5358 311.441 89.1348 312.339 89.1348H313.013V88.6855C311.815 87.4876 310.767 86.8887 309.868 86.8887ZM232.827 76.332H232.154V77.2305L233.501 78.8027H235.523V78.3535L232.827 76.332ZM226.089 89.584V90.0332H226.763C228.41 90.0332 229.308 89.7337 229.458 89.1348L229.009 88.4609H228.56C227.212 88.4609 226.389 88.8353 226.089 89.584ZM283.589 79.0273L280.894 79.252V79.4766L281.343 80.1504H283.589C284.637 80.1504 285.236 79.8509 285.386 79.252L284.937 79.0273H283.589ZM248.101 151.352L247.202 152.025V153.822H248.101L248.999 153.148V151.801L248.55 151.352H248.101ZM221.148 175.834L220.249 174.936L219.8 175.834V176.732L220.249 177.406H221.148V175.834ZM252.593 90.9316L251.695 91.1562V91.8301L252.593 92.5039H253.267L253.941 91.8301V91.1562L252.593 90.9316ZM288.081 78.8027V79.252H289.654L290.552 78.5781L289.878 77.9043C288.68 78.2038 288.081 78.5033 288.081 78.8027ZM302.905 78.8027L302.456 79.252V79.4766L302.905 80.1504H303.804L304.253 79.4766V79.252L303.804 78.8027H302.905ZM248.325 76.5566L247.202 77.0059V77.9043H248.325L248.999 77.0059L248.325 76.5566ZM247.652 80.5996L246.753 81.2734V81.7227L247.202 82.1719L248.325 81.2734V80.5996H247.652ZM302.232 99.2422V99.6914H302.681L303.579 99.0176V98.3438H303.355C302.606 98.793 302.232 99.0924 302.232 99.2422ZM294.595 79.4766L293.696 80.1504V80.375H294.82L295.269 79.9258V79.4766H294.595ZM248.101 156.293H247.652V157.191H248.101V156.293ZM372.876 0.414062C376.17 0.414062 378.865 1.3125 380.962 3.10938C379.165 7.90104 377.967 15.4629 377.368 25.7949L375.346 46.459C375.346 47.5072 378.341 48.0312 384.331 48.0312C402 48.0312 410.835 48.8548 410.835 50.502C411.583 50.502 412.482 50.9512 413.53 51.8496C412.033 53.7962 411.284 55.2188 411.284 56.1172V56.791L411.958 61.2832L409.038 71.166C409.038 72.2142 410.161 73.7116 412.407 75.6582V76.1074C408.813 77.3053 405.893 77.9043 403.647 77.9043C401.251 77.7546 400.054 77.3802 400.054 76.7812V76.332L402.075 76.1074H403.647L404.546 75.209V74.7598L403.647 74.5352L388.598 74.7598L376.245 74.5352C375.496 74.5352 374.673 78.7279 373.774 87.1133H373.55L370.405 83.5195L369.731 85.9902V87.3379C369.881 91.5306 370.405 93.7767 371.304 94.0762C371.902 94.0762 372.427 92.7285 372.876 90.0332V88.4609H373.55L373.774 89.1348L372.202 110.697C373.999 141.693 375.571 157.191 376.919 157.191C377.667 161.983 379.539 164.379 382.534 164.379C384.181 165.427 386.203 165.951 388.598 165.951H392.641L406.118 165.277C406.417 165.277 406.942 169.245 407.69 177.182C407.99 179.577 407.466 181.299 406.118 182.348C404.92 183.546 402.824 184.145 399.829 184.145L382.534 184.594C373.1 184.594 365.164 181.973 358.725 176.732C354.533 175.235 352.436 170.743 352.436 163.256C352.137 159.213 351.613 147.234 350.864 127.318L353.559 96.7715L354.233 83.5195V81.7227C353.185 75.4336 351.388 72.2891 348.843 72.2891H342.104H334.243C331.997 72.2891 329.751 72.8132 327.505 73.8613C326.007 73.7116 324.136 71.6901 321.889 67.7969L326.382 47.8066C326.382 47.2077 335.441 46.8333 353.559 46.6836C353.559 44.737 354.608 42.2663 356.704 39.2715C357.303 15.9121 358.126 4.23242 359.175 4.23242V3.55859C359.175 3.25911 358.8 3.10938 358.052 3.10938V2.43555C358.052 1.98633 362.993 1.3125 372.876 0.414062ZM364.341 6.47852H364.116V7.82617H364.79V6.92773L364.341 6.47852ZM373.999 6.92773L373.1 7.82617V8.27539L373.774 13.4414H374.223C376.02 11.6445 376.919 10.0723 376.919 8.72461V7.82617L376.245 6.92773H373.999ZM365.913 15.2383L365.239 14.5645C364.94 16.0618 364.79 18.0085 364.79 20.4043V21.3027H365.239L365.913 17.4844V15.2383ZM366.587 24.6719H366.138L365.239 46.9082V47.1328L365.913 47.8066H366.362C367.41 47.8066 367.934 45.9349 367.934 42.1914V37.0254L367.485 26.0195C367.186 25.1211 366.886 24.6719 366.587 24.6719ZM327.729 50.502C327.729 51.5501 328.403 52.0742 329.751 52.0742H333.12C339.259 52.0742 344.949 51.7747 350.19 51.1758V50.7266C350.19 49.9779 346.522 49.6035 339.184 49.6035H329.751C328.403 49.6035 327.729 49.903 327.729 50.502ZM397.807 49.6035L394.888 50.7266H392.192H388.374V51.4004C391.668 52.2988 394.513 52.748 396.909 52.748H402.075C402.374 52.748 402.524 52.5234 402.524 52.0742C402.225 50.4271 401.401 49.6035 400.054 49.6035H397.807ZM404.096 51.8496L403.423 52.2988V52.748L404.096 52.9727C405.594 52.9727 406.417 52.6732 406.567 52.0742V51.8496H404.096ZM331.323 54.7695L330.874 55.2188V56.5664C330.874 58.0638 335.89 58.8125 345.923 58.8125C351.014 58.8125 353.559 58.4382 353.559 57.6895C353.559 55.8926 346.971 54.9193 333.794 54.7695H331.323ZM379.165 56.791L378.491 57.4648V57.6895C378.491 58.4382 381.186 58.8874 386.577 59.0371L390.395 58.8125L395.561 59.7109H396.46C397.508 59.7109 398.032 59.2617 398.032 58.3633H397.807L380.737 56.791H379.165ZM403.423 61.7324L402.524 62.6309V62.8555L403.423 63.5293H404.546C405.893 63.5293 406.717 63.0801 407.016 62.1816L406.343 61.7324H403.423ZM333.345 62.6309L332.446 63.3047C332.446 63.9036 332.82 64.2031 333.569 64.2031L339.184 64.4277L345.249 64.2031L345.473 63.9785V63.5293C343.677 62.9303 340.307 62.6309 335.366 62.6309H333.345ZM350.864 66.8984L332.446 66.2246V66.6738C332.446 67.722 338.136 68.2461 349.516 68.2461L351.313 67.7969V67.5723L350.864 66.8984ZM382.983 67.5723H381.86V68.2461C382.01 68.5456 384.63 69.2943 389.721 70.4922H390.171V70.043C387.775 68.3958 385.379 67.5723 382.983 67.5723ZM394.438 69.8184C398.481 71.166 402.075 71.8398 405.22 71.8398L406.118 70.9414V69.5938L405.444 68.9199H400.503C396.46 68.9199 394.438 69.2194 394.438 69.8184ZM363.218 77.9043V79.7012L363.891 80.375C364.49 80.2253 364.79 79.7012 364.79 78.8027V77.9043L364.341 76.332H364.116C363.517 76.4818 363.218 77.0059 363.218 77.9043ZM371.528 81.9473L370.405 81.0488V81.7227L371.304 82.6211H371.528V81.9473ZM364.341 82.3965H363.891L363.667 83.5195V84.6426L363.891 85.9902H364.79V83.9688V82.8457L364.341 82.3965ZM364.79 97.8945H364.116V99.6914L364.79 100.59H365.239V99.6914L364.79 97.8945ZM354.009 126.42L354.682 132.709L354.458 140.57L354.682 142.816H355.356C356.255 142.816 356.704 139.298 356.704 132.26V127.094C356.704 120.206 356.404 116.762 355.805 116.762C354.757 116.762 354.158 119.981 354.009 126.42ZM368.608 144.164H368.159L367.934 145.736V147.533C367.934 148.581 368.234 149.18 368.833 149.33H369.282C369.881 149.18 370.18 148.656 370.18 147.758C370.031 145.362 369.507 144.164 368.608 144.164ZM370.405 153.822L369.507 156.293C369.507 159.737 370.255 161.908 371.753 162.807L372.202 161.908V159.887C372.052 156.143 371.453 154.122 370.405 153.822ZM361.645 155.395H360.971V158.764L361.421 160.111H361.645L362.095 159.662V155.844L361.645 155.395ZM368.159 169.545V169.77V171.117C368.309 171.716 368.833 172.315 369.731 172.914H371.304V172.465C371.304 170.818 370.255 169.844 368.159 169.545ZM393.091 174.037H393.989C399.529 173.139 402.3 172.165 402.3 171.117L401.85 170.668C396.011 172.165 393.091 173.288 393.091 174.037ZM362.544 170.893H362.095V171.791C362.544 175.535 364.191 177.406 367.036 177.406H369.282L369.731 176.732V176.508C369.731 176.208 368.384 175.684 365.688 174.936L362.544 170.893ZM479.008 28.7148L479.907 28.4902C484.099 28.7897 491.212 30.7363 501.245 34.3301C502.143 35.2285 503.116 35.6777 504.164 35.6777L505.512 35.0039L516.069 48.7051C518.465 52.1491 519.663 54.8444 519.663 56.791C521.16 61.1335 521.909 65.401 521.909 69.5938C521.909 73.487 519.213 75.4336 513.823 75.4336C512.475 75.4336 510.004 74.8346 506.411 73.6367C506.111 73.6367 505.587 74.4603 504.838 76.1074H504.164C503.416 76.1074 502.293 73.1875 500.795 67.3477C496.453 55.069 494.057 48.8548 493.608 48.7051C491.511 47.5072 487.169 46.9082 480.58 46.9082H479.907L462.836 51.1758C458.644 54.0208 456.547 55.8926 456.547 56.791C456.547 77.1556 457.296 87.3379 458.793 87.3379C462.237 89.7337 468.826 90.9316 478.559 90.9316C480.356 91.3809 481.254 92.1296 481.254 93.1777C484.099 95.5736 485.522 98.1191 485.522 100.814C485.522 107.104 480.955 110.248 471.821 110.248H471.371C469.125 110.248 466.58 109.424 463.735 107.777L462.387 107.553C459.392 107.852 457.895 108.301 457.895 108.9V139.447C457.895 143.49 458.269 148.132 459.018 153.373L458.569 159.887V165.951C458.569 166.999 462.986 168.197 471.821 169.545C479.757 169.545 484.474 170.294 485.971 171.791L486.87 172.465C485.971 172.465 484.998 176.807 483.95 185.492L474.741 184.145L471.821 184.594C461.489 183.096 453.103 182.348 446.664 182.348L428.246 182.797C427.648 182.198 427.348 181.075 427.348 179.428V174.486C427.348 169.695 427.049 166.4 426.45 164.604C426.45 163.555 427.722 163.031 430.268 163.031C431.765 163.031 434.685 163.705 439.028 165.053H442.397C443.894 165.053 444.868 164.604 445.317 163.705V163.256C443.969 159.962 443.295 154.496 443.295 146.859C442.397 143.266 441.948 140.196 441.948 137.65V137.201C441.948 133.458 442.996 124.024 445.092 108.9C445.092 108.451 443.745 108.077 441.049 107.777H440.151C433.862 109.724 428.471 110.697 423.979 110.697L420.61 110.023C421.358 96.0977 422.257 89.1348 423.305 89.1348C423.455 88.6855 424.054 88.4609 425.102 88.4609H426.225C437.755 88.1615 443.52 87.7122 443.52 87.1133C443.52 79.6263 443.445 72.888 443.295 66.8984C443.146 60.9089 443.071 57.8392 443.071 57.6895V56.791L441.723 52.748C443.819 49.0046 445.916 46.0846 448.012 43.9883L458.569 32.9824C464.708 30.1374 471.521 28.7148 479.008 28.7148ZM461.713 37.4746C467.254 37.4746 471.371 36.3516 474.067 34.1055V33.4316H473.618C469.275 33.4316 465.307 34.7793 461.713 37.4746ZM495.629 37.0254C498.175 40.0202 500.496 41.5176 502.592 41.5176V39.9453C500.795 37.5495 498.699 36.3516 496.303 36.3516H496.079C495.779 36.3516 495.629 36.5762 495.629 37.0254ZM481.254 37.4746L479.233 37.9238V38.373C479.532 38.8223 480.056 39.0469 480.805 39.0469H483.95L484.623 38.5977C484.623 37.849 483.5 37.4746 481.254 37.4746ZM476.538 43.5391L475.864 44.2129V44.4375H476.538L477.211 43.9883V43.5391H476.538ZM501.245 54.7695H500.795V55.2188C500.795 57.1654 501.544 58.9622 503.041 60.6094H503.94L504.164 59.0371C504.015 56.1921 503.041 54.7695 501.245 54.7695ZM505.737 68.9199L506.411 69.1445H507.309L507.534 68.0215V65.3262H507.309C506.261 66.2246 505.737 67.4225 505.737 68.9199ZM424.204 92.2793V93.1777L424.877 93.627H426C426.899 93.4772 427.573 92.8034 428.022 91.6055L427.348 90.9316H426.45C425.401 90.9316 424.653 91.3809 424.204 92.2793ZM435.209 93.1777L434.086 94.0762V94.5254C434.086 95.5736 434.536 96.3223 435.434 96.7715C436.482 96.7715 437.83 96.1725 439.477 94.9746C439.477 94.5254 438.129 93.9264 435.434 93.1777H435.209ZM462.836 95.873H461.713V96.5469C462.312 97.5951 463.435 98.1191 465.082 98.1191H466.43V97.4453C465.831 96.3971 464.633 95.873 462.836 95.873ZM474.067 98.5684H473.393V99.0176H474.067V98.5684ZM451.157 98.793H450.932V100.59L451.606 101.039V100.814V99.2422L451.157 98.793ZM435.883 100.814L435.434 101.488V101.938L436.782 102.162H437.455L437.68 101.488C437.68 101.339 437.081 101.114 435.883 100.814ZM473.842 104.408L474.741 104.633C479.083 103.884 481.254 103.061 481.254 102.162V101.488H479.907C475.864 101.938 473.842 102.911 473.842 104.408ZM426.45 103.285C425.551 104.633 425.102 105.756 425.102 106.654V107.553L425.551 108.002H428.022L428.471 107.553C428.471 105.906 427.797 104.483 426.45 103.285ZM441.274 104.408L440.825 105.082V105.307H443.52L444.194 104.633V104.408H441.274ZM450.258 111.146H449.809L449.135 117.436L449.584 121.254H449.809L450.258 117.66V111.146ZM452.954 117.211H452.28V117.885H452.954V117.211ZM452.504 121.254H451.606V122.377V123.275L452.504 122.377V121.254ZM452.055 125.072L451.157 124.848L450.932 125.072V125.521L451.157 126.869H452.055V125.072ZM448.686 129.115L449.584 131.586L449.135 134.506C449.584 139.298 450.183 141.693 450.932 141.693H451.157C451.905 141.693 452.355 138.998 452.504 133.607V132.484C452.504 129.49 451.606 127.992 449.809 127.992H449.135C448.836 127.992 448.686 128.367 448.686 129.115ZM450.932 152.475H449.809V153.373L450.707 153.822H451.157L450.932 152.475ZM450.258 158.539H449.809C449.659 159.587 449.584 161.833 449.584 165.277V165.502H450.707L451.606 164.604V161.684C451.157 159.587 450.707 158.539 450.258 158.539ZM434.76 166.4H434.086V167.299C434.086 167.898 435.284 168.272 437.68 168.422L440.151 167.973V167.748C437.755 166.85 435.958 166.4 434.76 166.4ZM474.965 173.363V173.812L476.987 174.037C479.982 173.738 481.479 173.363 481.479 172.914L481.254 172.465H477.211C475.714 172.465 474.965 172.764 474.965 173.363ZM433.862 175.834L433.413 176.283V176.508C433.413 177.556 436.482 178.23 442.621 178.529L443.071 178.08C441.124 176.583 438.579 175.834 435.434 175.834H433.862ZM445.766 175.834V176.283C447.114 177.781 448.386 178.529 449.584 178.529H451.157V178.08C449.21 176.583 447.413 175.834 445.766 175.834ZM479.907 177.855L479.008 178.529V178.979L480.58 180.775H481.254L481.704 180.102V178.529L480.805 177.855H479.907ZM457.67 178.08H454.301V178.529C454.301 179.428 455.724 179.952 458.569 180.102H462.163L462.836 179.428C462.836 178.529 461.114 178.08 457.67 178.08ZM564.701 74.7598L570.99 76.5566H573.012C581.547 80.7493 589.483 85.7656 596.82 91.6055C604.457 98.194 608.275 103.135 608.275 106.43H607.826C606.628 104.333 605.43 103.285 604.232 103.285H604.008C603.559 103.285 603.334 103.585 603.334 104.184C603.933 105.831 605.281 108.676 607.377 112.719H607.826C608.126 112.719 608.5 111.97 608.949 110.473H609.174C609.623 110.622 610.147 112.794 610.746 116.986L612.768 121.479L612.318 124.398L612.992 132.484C611.944 136.228 610.971 141.169 610.072 147.309C609.473 150.154 602.51 160.785 589.184 179.203C583.194 184.893 577.354 187.738 571.664 187.738C566.423 188.337 560.508 188.637 553.92 188.637H549.652C547.107 188.637 540.443 186.465 529.662 182.123C516.036 169.994 509.223 160.71 509.223 154.271C507.276 150.229 505.629 146.485 504.281 143.041C504.281 141.094 506.303 134.656 510.346 123.725C510.346 116.837 511.993 112.045 515.287 109.35C522.325 94.2259 531.234 84.418 542.016 79.9258C551.449 76.4818 559.011 74.7598 564.701 74.7598ZM524.271 145.287V146.635C526.368 150.678 528.689 155.02 531.234 159.662C531.234 161.16 534.079 163.256 539.77 165.951C542.465 169.096 547.481 171.566 554.818 173.363L558.861 173.812C565.45 172.465 570.391 171.042 573.686 169.545L581.771 162.807C590.157 153.822 594.2 146.26 593.9 140.121V138.1C593.002 135.704 592.553 131.811 592.553 126.42C592.553 122.227 592.852 118.933 593.451 116.537C593.451 115.489 590.531 112.868 584.691 108.676C580.499 102.686 576.156 99.0176 571.664 97.6699H568.969C551.449 98.4186 542.689 99.8411 542.689 101.938C538.796 105.831 536.101 109.649 534.604 113.393C529.812 118.484 527.416 121.853 527.416 123.5C526.068 129.639 525.02 136.902 524.271 145.287ZM531.234 90.9316L530.561 92.0547V92.9531C531.459 92.9531 536.026 89.8086 544.262 83.5195L546.059 82.8457L547.406 83.0703C557.439 82.0221 562.455 81.0488 562.455 80.1504V79.9258L558.861 79.252C548.679 79.252 539.47 83.1452 531.234 90.9316ZM548.754 95.6484V95.873L549.203 96.5469H552.348L568.295 92.9531V92.5039L564.027 91.6055C553.845 92.8034 548.754 94.151 548.754 95.6484ZM513.49 151.576L512.592 152.25V153.822C512.891 158.913 514.314 161.758 516.859 162.357L517.084 162.133V161.908C516.036 155.02 514.838 151.576 513.49 151.576ZM548.305 88.0117V89.1348C559.984 87.7871 565.824 86.8887 565.824 86.4395L564.027 85.7656H563.803C556.615 85.7656 551.449 86.5143 548.305 88.0117ZM567.396 79.4766C568.145 81.5729 569.792 82.6211 572.338 82.6211L574.584 82.8457L575.033 82.6211V81.498C575.033 79.8509 573.461 78.8776 570.316 78.5781C568.37 78.7279 567.396 79.0273 567.396 79.4766ZM526.518 174.262H524.945V175.16C526.892 177.107 530.411 178.08 535.502 178.08H537.973C537.224 177.032 533.406 175.759 526.518 174.262ZM563.578 182.572V183.021C563.578 183.471 564.701 183.845 566.947 184.145C569.493 184.145 570.766 183.77 570.766 183.021V182.572C570.616 181.973 570.092 181.374 569.193 180.775H567.172C565.525 180.775 564.327 181.374 563.578 182.572ZM606.254 139.896C606.404 144.389 606.778 146.785 607.377 147.084H607.826C607.826 145.437 608.5 143.64 609.848 141.693V141.02L607.377 137.65H606.928C606.628 137.65 606.404 138.399 606.254 139.896ZM591.43 101.264H590.531C591.43 103.21 593.601 104.857 597.045 106.205H597.943L598.617 105.531V105.307C596.072 102.611 593.676 101.264 591.43 101.264ZM586.488 94.3008V94.75C586.938 96.5469 589.034 98.4186 592.777 100.365H593.451L593.9 99.6914V99.4668C593.152 98.4186 590.681 96.6966 586.488 94.3008ZM571.664 86.8887L571.215 87.1133C574.06 89.3594 576.306 90.4824 577.953 90.4824L578.178 90.0332V89.8086C575.782 87.862 573.611 86.8887 571.664 86.8887ZM541.791 177.182V177.855C541.791 178.754 543.887 179.203 548.08 179.203L548.305 178.979V178.529C546.358 177.631 544.187 177.182 541.791 177.182ZM583.119 84.418L582.445 85.0918C584.092 87.1882 585.74 88.2363 587.387 88.2363C587.387 86.5892 586.114 85.3164 583.568 84.418H583.119ZM528.314 107.553V109.125H528.988C530.935 107.328 531.908 105.906 531.908 104.857V104.633H530.785C529.887 105.232 529.063 106.205 528.314 107.553ZM579.076 97.2207C579.975 98.7181 581.023 99.4668 582.221 99.4668L582.445 99.0176V98.5684C582.445 97.2207 581.846 96.5469 580.648 96.5469C579.6 96.6966 579.076 96.9212 579.076 97.2207ZM600.863 156.293V156.518C602.061 156.518 603.109 155.32 604.008 152.924V152.475H603.334C602.436 152.475 601.612 153.747 600.863 156.293ZM533.031 95.873C534.379 95.873 535.652 94.9746 536.85 93.1777V92.5039C534.304 93.2526 533.031 94.3757 533.031 95.873ZM604.457 152.25H605.58L606.479 152.924C606.628 150.528 606.254 149.48 605.355 149.779H604.906L604.682 148.207L604.457 152.25ZM575.707 184.145H575.932C578.627 183.246 579.975 182.497 579.975 181.898L579.525 181.449C577.429 182.198 576.156 183.096 575.707 184.145ZM521.801 166.4L520.902 166.85V167.299L522.699 169.096H523.598C523.598 168.048 522.999 167.149 521.801 166.4ZM537.074 180.326V180.551H539.994L540.443 180.102L539.994 179.428H539.545C538.048 179.428 537.224 179.727 537.074 180.326ZM609.848 123.949L609.174 124.623V125.521L609.848 126.42L610.746 125.521V124.623L610.072 123.949H609.848ZM514.838 116.762C515.587 116.762 516.26 116.238 516.859 115.189V114.74C515.512 114.74 514.838 115.414 514.838 116.762ZM507.875 141.02L507.426 141.693C507.576 143.041 507.8 143.715 508.1 143.715L508.549 143.49V142.367L508.1 141.02H507.875ZM567.846 89.1348V89.3594L570.092 87.5625L569.643 87.3379C568.145 88.2363 567.546 88.8353 567.846 89.1348ZM519.33 109.125H519.555C520.154 108.975 520.453 108.376 520.453 107.328H520.004C519.555 107.628 519.33 108.227 519.33 109.125ZM520.678 136.078L519.779 136.977V137.426H520.453L520.902 136.752V136.078H520.678ZM533.93 102.162H533.031V103.061H533.48L533.93 102.611V102.162ZM623.216 13.2168L626.586 12.3184L636.019 14.7891L650.619 14.1152C654.362 14.1152 656.234 15.2383 656.234 17.4844C655.336 23.1745 654.886 30.7363 654.886 40.1699V75.4336L654.662 109.35L654.886 118.334L653.763 161.01C658.854 162.357 666.566 163.331 676.898 163.93L677.123 164.154V167.299C677.123 168.048 677.946 169.245 679.593 170.893C677.946 174.486 676.075 179.802 673.978 186.84L671.957 188.412H671.283C670.384 187.064 668.513 186.391 665.668 186.391L628.832 181.449C617.751 181.449 612.211 180.775 612.211 179.428C614.007 175.834 615.355 169.994 616.254 161.908H616.478V161.684L618.724 161.908H620.97C621.719 161.459 623.89 160.86 627.484 160.111C628.981 160.86 630.104 161.234 630.853 161.234H633.548C635.046 161.234 635.795 159.737 635.795 156.742C636.094 153.148 636.843 136.752 638.041 107.553C636.992 98.5684 636.094 73.8613 635.345 33.4316C634.746 32.3835 633.998 31.8594 633.099 31.8594L622.992 32.5332C621.195 32.3835 620.297 31.7845 620.297 30.7363C620.895 19.0566 621.869 13.2168 623.216 13.2168ZM625.463 17.4844L624.115 17.9336V18.3828C624.115 19.7305 624.864 20.4043 626.361 20.4043H627.035C628.682 20.4043 630.329 19.5807 631.976 17.9336V17.4844H625.463ZM636.918 17.4844L636.468 18.1582L638.265 18.6074H640.511L641.41 17.9336V17.4844H636.918ZM644.105 26.2441V26.4688L644.779 27.1426H645.677C647.025 26.2441 648.672 25.3457 650.619 24.4473C651.367 23.2493 651.742 22.3509 651.742 21.752L651.293 21.3027H650.619C649.271 21.3027 647.923 22.1263 646.576 23.7734C644.929 24.2227 644.105 25.0462 644.105 26.2441ZM624.339 22.6504L623.216 23.7734V25.3457L624.115 26.2441H628.607H630.179V25.3457L626.136 23.5488L624.789 22.6504H624.339ZM641.859 40.8438L641.41 41.5176V42.416L641.859 43.0898H642.308L642.533 42.416V41.5176L642.308 40.8438H641.859ZM641.41 53.4219L640.736 54.0957V54.5449H641.859V53.4219H641.41ZM651.293 68.9199H650.619V69.1445L651.517 70.2676H651.742V69.5938L651.293 68.9199ZM651.742 72.9629L650.843 72.2891L650.619 76.7812V79.4766H650.843C651.442 79.4766 651.742 78.4284 651.742 76.332V72.9629ZM640.062 78.1289V79.0273L640.511 79.4766L640.961 79.0273V77.9043L640.736 77.4551C640.736 77.3053 641.335 76.8561 642.533 76.1074V75.4336H641.634C640.586 76.0326 640.062 76.931 640.062 78.1289ZM651.517 81.0488H650.619V82.8457H650.843L651.517 82.3965V81.0488ZM643.207 106.654V107.328H643.656C644.405 107.328 644.779 104.258 644.779 98.1191C644.479 98.1191 643.955 100.964 643.207 106.654ZM648.373 117.211L647.923 117.66L647.474 131.811V150.678L647.923 159.438L648.148 159.662H649.72C650.319 159.662 650.619 158.988 650.619 157.641C650.469 130.688 649.72 117.211 648.373 117.211ZM639.164 150.678V151.576C639.164 152.624 639.463 153.148 640.062 153.148L640.961 151.801V150.229C640.661 148.432 640.362 147.533 640.062 147.533C639.463 147.533 639.164 148.581 639.164 150.678ZM625.687 165.277L625.238 165.951C625.238 167.149 625.762 167.748 626.81 167.748H627.035V165.951L626.361 165.277H625.687ZM669.935 165.277L668.588 165.502V165.951C668.737 166.85 670.01 167.299 672.406 167.299L673.529 166.4V165.502L672.181 165.277H669.935ZM619.173 165.951L618.724 166.625V167.299L619.623 167.748L620.072 166.85L619.847 165.951H619.173ZM630.179 168.422V168.646L631.302 168.871H632.65L633.548 168.422V167.748H631.976H631.752C630.703 167.748 630.179 167.973 630.179 168.422ZM670.834 172.016L658.031 171.566V171.791C658.031 172.689 660.576 173.214 665.668 173.363H671.507L673.08 172.914V172.24L670.834 172.016ZM628.607 172.24L627.933 173.363L628.382 174.037H631.752C634.147 174.037 635.345 173.812 635.345 173.363V172.914C633.698 172.465 631.602 172.24 629.056 172.24H628.607ZM663.646 177.855L664.545 178.08H669.037C670.384 178.08 671.133 177.855 671.283 177.406V176.732L669.935 176.508H666.566C664.619 176.658 663.646 177.107 663.646 177.855ZM616.478 176.732L615.804 177.855L616.478 178.08H617.601L618.275 177.855L617.377 176.732H616.478ZM670.16 182.123H668.812V183.021L670.16 183.471H670.834L672.181 183.021V182.123H670.834H670.16ZM711.605 22.4258L719.241 21.3027C724.482 21.3027 728.6 23.998 731.595 29.3887L733.167 36.5762C732.868 39.4212 731.221 43.1647 728.226 47.8066C726.279 49.7533 723.284 50.7266 719.241 50.7266C709.808 50.7266 703.968 49.304 701.722 46.459C699.476 43.4642 698.428 39.2715 698.577 33.8809C697.978 33.8809 697.679 33.7311 697.679 33.4316V32.9824C702.171 25.9447 706.813 22.4258 711.605 22.4258ZM707.112 28.041V28.2656C712.204 27.6667 714.749 26.9928 714.749 26.2441L713.626 25.7949C709.284 26.5436 707.112 27.2923 707.112 28.041ZM710.931 34.5547H711.155L712.503 34.7793H712.952C714.599 34.7793 715.648 34.1803 716.097 32.9824L715.872 32.5332H713.177C711.979 32.5332 711.23 33.207 710.931 34.5547ZM727.103 32.5332L726.429 33.6562V34.5547H726.654L727.327 33.6562V32.5332H727.103ZM721.712 39.9453V40.6191H722.611C723.659 40.6191 724.482 40.0951 725.081 39.0469V38.373H724.632C723.584 38.373 722.611 38.8971 721.712 39.9453ZM716.771 43.9883L716.097 44.6621V45.1113H720.14L720.814 44.6621L720.14 43.9883H716.771ZM688.245 65.3262H688.919C690.117 66.3743 691.614 66.8984 693.411 66.8984L696.331 65.5508C716.696 65.5508 726.878 66.1497 726.878 67.3477L727.103 68.9199V72.7383C728.45 75.7331 729.124 78.5781 729.124 81.2734V84.8672C727.327 109.275 726.129 129.04 725.53 144.164C725.231 145.062 724.931 146.635 724.632 148.881C724.782 149.48 725.456 149.779 726.654 149.779H727.327C735.413 149.779 739.456 150.753 739.456 152.699L739.232 153.148V154.496C741.029 158.09 741.927 163.78 741.927 171.566L742.825 180.551L742.152 181L732.269 181.449H709.808C693.037 181.449 684.652 180.102 684.652 177.406C684.652 175.759 684.202 174.112 683.304 172.465C683.753 171.417 684.502 170.593 685.55 169.994H686.224C686.823 170.593 687.497 170.893 688.245 170.893H688.695C693.037 170.893 698.203 170.518 704.193 169.77V169.32C691.315 168.422 684.876 167.374 684.876 166.176L684.652 164.379V161.908L684.202 156.068C684.202 154.571 689.818 153.822 701.048 153.822C702.545 153.822 703.294 150.453 703.294 143.715L705.989 84.6426H705.54C701.348 84.6426 699.251 84.3431 699.251 83.7441C699.251 83.5944 699.476 83.3698 699.925 83.0703C690.941 83.0703 686.448 82.0221 686.448 79.9258C685.849 79.776 685.55 79.1771 685.55 78.1289L686.673 75.4336C686.673 74.8346 686.224 74.0111 685.325 72.9629C686.523 71.765 687.347 69.3691 687.796 65.7754L688.245 65.3262ZM691.839 69.8184V70.7168H692.962C696.855 70.7168 698.802 70.4173 698.802 69.8184L698.353 68.9199H697.679C693.786 68.9199 691.839 69.2194 691.839 69.8184ZM722.386 68.2461L721.712 68.9199L722.611 69.5938H723.06V68.9199L722.386 68.2461ZM696.78 72.9629H692.737V73.6367C692.737 74.2357 693.786 74.5352 695.882 74.5352H698.353H699.027H706.439C708.685 74.5352 709.808 74.1608 709.808 73.4121V73.1875C709.808 72.4388 705.465 72.3639 696.78 72.9629ZM716.771 73.1875L714.749 72.9629V73.4121C715.797 73.4121 717.07 74.1608 718.568 75.6582H719.017C719.316 75.6582 719.466 75.4336 719.466 74.9844H719.915C720.514 74.9844 720.889 75.6582 721.038 77.0059H721.487L724.632 74.7598V73.4121L719.915 73.1875H716.771ZM715.872 85.7656L716.995 89.1348L715.423 93.1777C716.022 94.5254 716.546 95.1992 716.995 95.1992H717.22L717.669 93.8516V92.5039C717.669 87.1133 718.493 84.418 720.14 84.418L720.814 83.5195V82.6211L720.14 81.9473H718.792C716.846 81.9473 715.872 83.2201 715.872 85.7656ZM708.909 107.104L708.236 136.078C708.385 137.126 708.61 137.65 708.909 137.65C709.359 137.65 709.658 136.977 709.808 135.629L709.583 132.26C710.332 131.511 711.155 128.516 712.054 123.275V121.928L711.605 118.783C712.503 118.035 712.952 117.51 712.952 117.211C712.353 115.564 712.054 113.917 712.054 112.27V111.82C712.653 111.82 713.402 103.435 714.3 86.6641C713.851 85.4661 713.402 84.8672 712.952 84.8672C710.706 84.8672 709.359 92.2793 708.909 107.104ZM719.915 87.3379L719.017 87.5625V88.9102C719.017 89.8086 719.391 90.4824 720.14 90.9316H720.814L721.487 90.0332V88.9102C721.188 88.1615 720.664 87.6374 719.915 87.3379ZM718.792 123.949H717.669C716.471 129.49 715.872 133.607 715.872 136.303H716.097C716.846 136.303 717.819 133.233 719.017 127.094V125.521L718.792 123.949ZM714.525 145.062V146.635H714.974C715.723 146.335 716.097 145.437 716.097 143.939V142.367H715.423C715.124 142.367 714.824 143.266 714.525 145.062ZM714.974 148.432L714.3 149.33V150.453H714.974L715.872 149.779V149.105L715.198 148.432H714.974ZM732.943 153.822L732.269 154.047C733.167 154.796 734.814 155.245 737.21 155.395V154.721C737.21 154.122 736.237 153.822 734.29 153.822H732.943ZM733.841 163.256L731.146 163.93C731.445 165.727 732.793 166.625 735.189 166.625H735.862V165.951L735.413 165.277C735.413 165.128 736.012 164.678 737.21 163.93V162.807C737.21 161.758 736.911 161.16 736.312 161.01H735.413C734.964 161.16 734.44 161.908 733.841 163.256ZM690.941 161.234L689.368 161.684V161.908C690.566 163.106 695.208 163.78 703.294 163.93H704.866C706.064 163.93 706.813 163.555 707.112 162.807V162.357C700.823 161.609 695.433 161.234 690.941 161.234ZM712.054 163.93L712.952 165.053C714.3 165.053 714.974 164.304 714.974 162.807H713.851C712.952 162.807 712.353 163.181 712.054 163.93ZM733.167 168.422L732.493 169.32V169.77H732.943L733.616 168.871V168.422H733.167ZM715.872 169.77L712.952 169.994H709.808V170.893L712.952 171.117L719.466 170.668V169.994H718.568L715.872 169.77ZM738.782 177.406L737.884 178.08V178.754H739.232L739.456 178.08L739.232 177.406H738.782ZM804.036 74.7598L810.325 76.5566H812.346C820.882 80.7493 828.818 85.7656 836.155 91.6055C843.792 98.194 847.61 103.135 847.61 106.43H847.161C845.963 104.333 844.765 103.285 843.567 103.285H843.343C842.893 103.285 842.669 103.585 842.669 104.184C843.268 105.831 844.615 108.676 846.712 112.719H847.161C847.46 112.719 847.835 111.97 848.284 110.473H848.509C848.958 110.622 849.482 112.794 850.081 116.986L852.102 121.479L851.653 124.398L852.327 132.484C851.279 136.228 850.305 141.169 849.407 147.309C848.808 150.154 841.845 160.785 828.518 179.203C822.529 184.893 816.689 187.738 810.999 187.738C805.758 188.337 799.843 188.637 793.255 188.637H788.987C786.442 188.637 779.778 186.465 768.997 182.123C755.371 169.994 748.557 160.71 748.557 154.271C746.611 150.229 744.964 146.485 743.616 143.041C743.616 141.094 745.638 134.656 749.68 123.725C749.68 116.837 751.328 112.045 754.622 109.35C761.66 94.2259 770.569 84.418 781.35 79.9258C790.784 76.4818 798.346 74.7598 804.036 74.7598ZM763.606 145.287V146.635C765.703 150.678 768.024 155.02 770.569 159.662C770.569 161.16 773.414 163.256 779.104 165.951C781.8 169.096 786.816 171.566 794.153 173.363L798.196 173.812C804.785 172.465 809.726 171.042 813.02 169.545L821.106 162.807C829.492 153.822 833.535 146.26 833.235 140.121V138.1C832.337 135.704 831.888 131.811 831.888 126.42C831.888 122.227 832.187 118.933 832.786 116.537C832.786 115.489 829.866 112.868 824.026 108.676C819.833 102.686 815.491 99.0176 810.999 97.6699H808.304C790.784 98.4186 782.024 99.8411 782.024 101.938C778.131 105.831 775.436 109.649 773.938 113.393C769.147 118.484 766.751 121.853 766.751 123.5C765.403 129.639 764.355 136.902 763.606 145.287ZM770.569 90.9316L769.895 92.0547V92.9531C770.794 92.9531 775.361 89.8086 783.596 83.5195L785.393 82.8457L786.741 83.0703C796.774 82.0221 801.79 81.0488 801.79 80.1504V79.9258L798.196 79.252C788.014 79.252 778.805 83.1452 770.569 90.9316ZM788.089 95.6484V95.873L788.538 96.5469H791.682L807.63 92.9531V92.5039L803.362 91.6055C793.18 92.8034 788.089 94.151 788.089 95.6484ZM752.825 151.576L751.927 152.25V153.822C752.226 158.913 753.649 161.758 756.194 162.357L756.419 162.133V161.908C755.371 155.02 754.173 151.576 752.825 151.576ZM787.639 88.0117V89.1348C799.319 87.7871 805.159 86.8887 805.159 86.4395L803.362 85.7656H803.138C795.95 85.7656 790.784 86.5143 787.639 88.0117ZM806.731 79.4766C807.48 81.5729 809.127 82.6211 811.673 82.6211L813.919 82.8457L814.368 82.6211V81.498C814.368 79.8509 812.796 78.8776 809.651 78.5781C807.705 78.7279 806.731 79.0273 806.731 79.4766ZM765.852 174.262H764.28V175.16C766.227 177.107 769.746 178.08 774.837 178.08H777.307C776.559 177.032 772.74 175.759 765.852 174.262ZM802.913 182.572V183.021C802.913 183.471 804.036 183.845 806.282 184.145C808.828 184.145 810.1 183.77 810.1 183.021V182.572C809.951 181.973 809.427 181.374 808.528 180.775H806.507C804.86 180.775 803.662 181.374 802.913 182.572ZM845.589 139.896C845.738 144.389 846.113 146.785 846.712 147.084H847.161C847.161 145.437 847.835 143.64 849.182 141.693V141.02L846.712 137.65H846.263C845.963 137.65 845.738 138.399 845.589 139.896ZM830.764 101.264H829.866C830.764 103.21 832.936 104.857 836.38 106.205H837.278L837.952 105.531V105.307C835.406 102.611 833.011 101.264 830.764 101.264ZM825.823 94.3008V94.75C826.272 96.5469 828.369 98.4186 832.112 100.365H832.786L833.235 99.6914V99.4668C832.486 98.4186 830.016 96.6966 825.823 94.3008ZM810.999 86.8887L810.55 87.1133C813.395 89.3594 815.641 90.4824 817.288 90.4824L817.513 90.0332V89.8086C815.117 87.862 812.945 86.8887 810.999 86.8887ZM781.126 177.182V177.855C781.126 178.754 783.222 179.203 787.415 179.203L787.639 178.979V178.529C785.693 177.631 783.522 177.182 781.126 177.182ZM822.454 84.418L821.78 85.0918C823.427 87.1882 825.074 88.2363 826.721 88.2363C826.721 86.5892 825.449 85.3164 822.903 84.418H822.454ZM767.649 107.553V109.125H768.323C770.27 107.328 771.243 105.906 771.243 104.857V104.633H770.12C769.221 105.232 768.398 106.205 767.649 107.553ZM818.411 97.2207C819.309 98.7181 820.358 99.4668 821.555 99.4668L821.78 99.0176V98.5684C821.78 97.2207 821.181 96.5469 819.983 96.5469C818.935 96.6966 818.411 96.9212 818.411 97.2207ZM840.198 156.293V156.518C841.396 156.518 842.444 155.32 843.343 152.924V152.475H842.669C841.77 152.475 840.947 153.747 840.198 156.293ZM772.366 95.873C773.714 95.873 774.986 94.9746 776.184 93.1777V92.5039C773.639 93.2526 772.366 94.3757 772.366 95.873ZM843.792 152.25H844.915L845.813 152.924C845.963 150.528 845.589 149.48 844.69 149.779H844.241L844.016 148.207L843.792 152.25ZM815.042 184.145H815.266C817.962 183.246 819.309 182.497 819.309 181.898L818.86 181.449C816.764 182.198 815.491 183.096 815.042 184.145ZM761.136 166.4L760.237 166.85V167.299L762.034 169.096H762.932C762.932 168.048 762.333 167.149 761.136 166.4ZM776.409 180.326V180.551H779.329L779.778 180.102L779.329 179.428H778.88C777.382 179.428 776.559 179.727 776.409 180.326ZM849.182 123.949L848.509 124.623V125.521L849.182 126.42L850.081 125.521V124.623L849.407 123.949H849.182ZM754.173 116.762C754.921 116.762 755.595 116.238 756.194 115.189V114.74C754.846 114.74 754.173 115.414 754.173 116.762ZM747.21 141.02L746.761 141.693C746.91 143.041 747.135 143.715 747.434 143.715L747.884 143.49V142.367L747.434 141.02H747.21ZM807.18 89.1348V89.3594L809.427 87.5625L808.977 87.3379C807.48 88.2363 806.881 88.8353 807.18 89.1348ZM758.665 109.125H758.889C759.488 108.975 759.788 108.376 759.788 107.328H759.339C758.889 107.628 758.665 108.227 758.665 109.125ZM760.013 136.078L759.114 136.977V137.426H759.788L760.237 136.752V136.078H760.013ZM773.264 102.162H772.366V103.061H772.815L773.264 102.611V102.162Z" fill="#367CDE"/>
</svg>
